<?xml version="1.0" encoding="UTF-8"?>
<svg viewBox="0 0 24 24" xmlns="http://www.w3.org/2000/svg">
  <path fill="#7367f0" fill-rule="evenodd" d="M 9.569 1.629 L 12.41 0 L 21 4.822 L 20.998 8.157 L 9.569 1.629 Z M 4.224 4.538 L 7.143 3.007 L 20.854 10.715 L 20.854 13.963 L 12.287 18.949 L 12.287 24 L 9.389 22.382 L 9.389 17.308 L 18.227 12.345 L 15.88 11.021 L 7.132 15.996 L 7.155 21.168 L 4.224 19.527 L 4.224 15.428 L 3 14.739 L 3 9.589 L 4.224 10.277 L 4.224 4.549 L 4.224 4.538 Z M 7.121 6.101 L 9.479 7.425 L 9.479 11.568 L 7.087 12.913 L 7.121 6.091 L 7.121 6.101 Z"/>
</svg>
